# xmcd CD database file
#
# Track frame offsets:
#	150
#	25170
#	42703
#	58243
#	77613
#	92483
#	112433
#	135995
#	161930
#	175458
#
# Disc length: 2566 seconds
#
# Revision: 2
# Processed by: cddbd v1.5.2PL0 Copyright (c) Steve Scherf et al.
# Submitted via: CDex 1.51
#
DISCID=8c0a040a
DTITLE=Deep Forest - Deep Forest
DYEAR=1992
DGENRE=New Age
TTITLE0=Deep Forest
TTITLE1=Sweet Lullaby
TTITLE2=Hunting
TTITLE3=Nightbird
TTITLE4=The First Twilight
TTITLE5=Savana Dance
TTITLE6=Desert Walk
TTITLE7=White Whisper
TTITLE8=The Second Twilight
TTITLE9=Sweet Lullaby (Ambient Mix)
EXTD=YEAR: 1992
EXTT0=
EXTT1=
EXTT2=
EXTT3=
EXTT4=
EXTT5=
EXTT6=
EXTT7=
EXTT8=
EXTT9=
PLAYORDER=
